<svg width="18" height="26" viewBox="0 0 18 26" fill="none" xmlns="http://www.w3.org/2000/svg">
<path d="M7.40921 1.591C7.40921 0.712316 8.12152 0 9.00021 0C9.87889 0 10.5912 0.712314 10.5912 1.591V19.1462C10.5912 20.0169 11.6549 20.4404 12.2534 19.8081L14.5632 17.3677C15.2078 16.6866 16.2922 16.6866 16.9368 17.3677C17.5332 17.9978 17.5332 18.9841 16.9368 19.6143L12.224 24.5937C10.4729 26.4439 7.52722 26.4439 5.77609 24.5937L1.06318 19.6143C0.466779 18.9841 0.466777 17.9978 1.06317 17.3677C1.70782 16.6866 2.79219 16.6866 3.43684 17.3677L5.74688 19.8083C6.34542 20.4407 7.40921 20.0171 7.40921 19.1464V1.591Z" fill="white"/>
</svg>
